<mxfile host="app.diagrams.net" modified="2023-02-10T03:27:01.775Z" agent="5.0 (Windows NT 10.0; Win64; x64) AppleWebKit/537.36 (KHTML, like Gecko) Chrome/110.0.0.0 Safari/537.36" etag="Ut5ETlfvPSo-k2kw2mD8" version="20.8.19" type="github">
  <diagram name="Page-1" id="b98fa263-6416-c6ec-5b7d-78bf54ef71d0">
    <mxGraphModel dx="1283" dy="623" grid="0" gridSize="10" guides="1" tooltips="1" connect="1" arrows="1" fold="1" page="1" pageScale="1.5" pageWidth="1169" pageHeight="826" background="none" math="0" shadow="0">
      <root>
        <mxCell id="0" style=";html=1;" />
        <mxCell id="1" style=";html=1;" parent="0" />
        <mxCell id="-LwR_qFocEZtumS-MUre-3" value="" style="edgeStyle=orthogonalEdgeStyle;rounded=0;orthogonalLoop=1;jettySize=auto;html=1;fontSize=24;" edge="1" parent="1" source="303ed1de8c2c98b4-3" target="303ed1de8c2c98b4-5">
          <mxGeometry relative="1" as="geometry" />
        </mxCell>
        <mxCell id="-LwR_qFocEZtumS-MUre-4" value="" style="edgeStyle=orthogonalEdgeStyle;rounded=0;orthogonalLoop=1;jettySize=auto;html=1;fontSize=24;entryX=0.5;entryY=0;entryDx=0;entryDy=0;" edge="1" parent="1" source="303ed1de8c2c98b4-3" target="303ed1de8c2c98b4-7">
          <mxGeometry relative="1" as="geometry">
            <Array as="points">
              <mxPoint x="881" y="380" />
              <mxPoint x="559" y="380" />
              <mxPoint x="559" y="410" />
              <mxPoint x="559" y="410" />
            </Array>
          </mxGeometry>
        </mxCell>
        <mxCell id="-LwR_qFocEZtumS-MUre-5" value="" style="edgeStyle=orthogonalEdgeStyle;rounded=0;orthogonalLoop=1;jettySize=auto;html=1;fontSize=24;entryX=0.5;entryY=0;entryDx=0;entryDy=0;" edge="1" parent="1" source="303ed1de8c2c98b4-3" target="303ed1de8c2c98b4-6">
          <mxGeometry relative="1" as="geometry">
            <mxPoint x="1210" y="410" as="targetPoint" />
            <Array as="points">
              <mxPoint x="881" y="380" />
              <mxPoint x="1196" y="380" />
              <mxPoint x="1196" y="410" />
              <mxPoint x="1196" y="410" />
            </Array>
          </mxGeometry>
        </mxCell>
        <mxCell id="303ed1de8c2c98b4-3" value="&lt;font style=&quot;font-size: 36px;&quot;&gt;Home&lt;/font&gt;" style="whiteSpace=wrap;html=1;rounded=1;shadow=1;strokeWidth=1;fontSize=16;align=center;fillColor=#f5f5f5;strokeColor=#666666;" parent="1" vertex="1">
          <mxGeometry x="657" y="290" width="447" height="60" as="geometry" />
        </mxCell>
        <mxCell id="303ed1de8c2c98b4-5" value="&lt;font style=&quot;font-size: 24px;&quot;&gt;관리자&lt;/font&gt;" style="whiteSpace=wrap;html=1;rounded=1;shadow=1;strokeWidth=1;fontSize=16;align=center;fillColor=#f5f5f5;strokeColor=#666666;" parent="1" vertex="1">
          <mxGeometry x="743" y="420" width="275" height="40" as="geometry" />
        </mxCell>
        <mxCell id="303ed1de8c2c98b4-6" value="&lt;font style=&quot;font-size: 24px;&quot;&gt;맛집 공유 게시판&lt;/font&gt;" style="whiteSpace=wrap;html=1;rounded=1;shadow=1;strokeWidth=1;fontSize=16;align=center;fillColor=#f5f5f5;strokeColor=#666666;" parent="1" vertex="1">
          <mxGeometry x="1058" y="420" width="275" height="40" as="geometry" />
        </mxCell>
        <mxCell id="303ed1de8c2c98b4-7" value="&lt;span style=&quot;font-size: 24px;&quot;&gt;회원&lt;/span&gt;" style="whiteSpace=wrap;html=1;rounded=1;shadow=1;strokeWidth=1;fontSize=16;align=center;fillColor=#f5f5f5;strokeColor=#666666;" parent="1" vertex="1">
          <mxGeometry x="421" y="420" width="275" height="40" as="geometry" />
        </mxCell>
        <mxCell id="-LwR_qFocEZtumS-MUre-6" value="&lt;font style=&quot;font-size: 18px;&quot;&gt;회원가입&lt;/font&gt;" style="whiteSpace=wrap;html=1;rounded=1;shadow=1;strokeWidth=1;fontSize=16;align=center;fillColor=#f5f5f5;strokeColor=#666666;" vertex="1" parent="1">
          <mxGeometry x="421" y="490" width="275" height="40" as="geometry" />
        </mxCell>
        <mxCell id="-LwR_qFocEZtumS-MUre-11" value="&lt;span style=&quot;font-size: 18px;&quot;&gt;로그인&lt;/span&gt;" style="whiteSpace=wrap;html=1;rounded=1;shadow=1;strokeWidth=1;fontSize=16;align=center;fillColor=#f5f5f5;strokeColor=#666666;" vertex="1" parent="1">
          <mxGeometry x="421" y="550" width="275" height="40" as="geometry" />
        </mxCell>
        <mxCell id="-LwR_qFocEZtumS-MUre-12" value="&lt;font style=&quot;font-size: 18px;&quot;&gt;로그아웃&lt;/font&gt;" style="whiteSpace=wrap;html=1;rounded=1;shadow=1;strokeWidth=1;fontSize=16;align=center;fillColor=#f5f5f5;strokeColor=#666666;" vertex="1" parent="1">
          <mxGeometry x="421" y="610" width="275" height="40" as="geometry" />
        </mxCell>
        <mxCell id="-LwR_qFocEZtumS-MUre-13" value="&lt;font style=&quot;font-size: 18px;&quot;&gt;정보수정&lt;/font&gt;" style="whiteSpace=wrap;html=1;rounded=1;shadow=1;strokeWidth=1;fontSize=16;align=center;fillColor=#f5f5f5;strokeColor=#666666;" vertex="1" parent="1">
          <mxGeometry x="421" y="670" width="275" height="40" as="geometry" />
        </mxCell>
        <mxCell id="-LwR_qFocEZtumS-MUre-14" value="&lt;font style=&quot;font-size: 18px;&quot;&gt;회원탈퇴&lt;/font&gt;" style="whiteSpace=wrap;html=1;rounded=1;shadow=1;strokeWidth=1;fontSize=16;align=center;fillColor=#f5f5f5;strokeColor=#666666;" vertex="1" parent="1">
          <mxGeometry x="421" y="730" width="275" height="40" as="geometry" />
        </mxCell>
        <mxCell id="-LwR_qFocEZtumS-MUre-15" value="&lt;font style=&quot;font-size: 18px;&quot;&gt;회원관리&lt;/font&gt;" style="whiteSpace=wrap;html=1;rounded=1;shadow=1;strokeWidth=1;fontSize=16;align=center;fillColor=#f5f5f5;strokeColor=#666666;" vertex="1" parent="1">
          <mxGeometry x="743" y="490" width="275" height="40" as="geometry" />
        </mxCell>
        <mxCell id="-LwR_qFocEZtumS-MUre-16" value="&lt;font style=&quot;font-size: 18px;&quot;&gt;게시판 관리&lt;/font&gt;" style="whiteSpace=wrap;html=1;rounded=1;shadow=1;strokeWidth=1;fontSize=16;align=center;fillColor=#f5f5f5;strokeColor=#666666;" vertex="1" parent="1">
          <mxGeometry x="743" y="609" width="275" height="40" as="geometry" />
        </mxCell>
        <mxCell id="-LwR_qFocEZtumS-MUre-22" style="edgeStyle=orthogonalEdgeStyle;rounded=0;orthogonalLoop=1;jettySize=auto;html=1;entryX=1;entryY=0.5;entryDx=0;entryDy=0;fontSize=18;" edge="1" parent="1" target="-LwR_qFocEZtumS-MUre-23">
          <mxGeometry relative="1" as="geometry">
            <mxPoint x="1018" y="510" as="sourcePoint" />
            <Array as="points">
              <mxPoint x="1038" y="510" />
              <mxPoint x="1038" y="565" />
            </Array>
          </mxGeometry>
        </mxCell>
        <mxCell id="-LwR_qFocEZtumS-MUre-23" value="&lt;span style=&quot;font-size: 18px;&quot;&gt;회원 삭제&lt;/span&gt;" style="whiteSpace=wrap;html=1;rounded=1;shadow=1;strokeWidth=1;fontSize=16;align=center;fillColor=#f5f5f5;strokeColor=#666666;" vertex="1" parent="1">
          <mxGeometry x="810" y="545" width="168" height="40" as="geometry" />
        </mxCell>
        <mxCell id="-LwR_qFocEZtumS-MUre-24" style="edgeStyle=orthogonalEdgeStyle;rounded=0;orthogonalLoop=1;jettySize=auto;html=1;entryX=1;entryY=0.5;entryDx=0;entryDy=0;fontSize=18;" edge="1" target="-LwR_qFocEZtumS-MUre-25" parent="1">
          <mxGeometry relative="1" as="geometry">
            <mxPoint x="1018" y="629" as="sourcePoint" />
            <Array as="points">
              <mxPoint x="1038" y="629" />
              <mxPoint x="1038" y="684" />
            </Array>
          </mxGeometry>
        </mxCell>
        <mxCell id="-LwR_qFocEZtumS-MUre-25" value="&lt;span style=&quot;font-size: 18px;&quot;&gt;게시물 삭제&lt;/span&gt;" style="whiteSpace=wrap;html=1;rounded=1;shadow=1;strokeWidth=1;fontSize=16;align=center;fillColor=#f5f5f5;strokeColor=#666666;" vertex="1" parent="1">
          <mxGeometry x="810" y="664" width="168" height="40" as="geometry" />
        </mxCell>
        <mxCell id="-LwR_qFocEZtumS-MUre-31" value="&lt;span style=&quot;font-size: 18px;&quot;&gt;게시물 목록&lt;/span&gt;" style="whiteSpace=wrap;html=1;rounded=1;shadow=1;strokeWidth=1;fontSize=16;align=center;fillColor=#f5f5f5;strokeColor=#666666;" vertex="1" parent="1">
          <mxGeometry x="1060" y="490" width="275" height="40" as="geometry" />
        </mxCell>
        <mxCell id="-LwR_qFocEZtumS-MUre-32" value="&lt;font style=&quot;font-size: 18px;&quot;&gt;게시물 등록&lt;/font&gt;" style="whiteSpace=wrap;html=1;rounded=1;shadow=1;strokeWidth=1;fontSize=16;align=center;fillColor=#f5f5f5;strokeColor=#666666;" vertex="1" parent="1">
          <mxGeometry x="1060" y="550" width="275" height="40" as="geometry" />
        </mxCell>
        <mxCell id="-LwR_qFocEZtumS-MUre-33" value="&lt;font style=&quot;font-size: 18px;&quot;&gt;게시물 수정&lt;/font&gt;" style="whiteSpace=wrap;html=1;rounded=1;shadow=1;strokeWidth=1;fontSize=16;align=center;fillColor=#f5f5f5;strokeColor=#666666;" vertex="1" parent="1">
          <mxGeometry x="1060" y="610" width="275" height="40" as="geometry" />
        </mxCell>
        <mxCell id="-LwR_qFocEZtumS-MUre-34" value="&lt;font style=&quot;font-size: 18px;&quot;&gt;게시물 삭제&lt;/font&gt;" style="whiteSpace=wrap;html=1;rounded=1;shadow=1;strokeWidth=1;fontSize=16;align=center;fillColor=#f5f5f5;strokeColor=#666666;" vertex="1" parent="1">
          <mxGeometry x="1060" y="670" width="275" height="40" as="geometry" />
        </mxCell>
      </root>
    </mxGraphModel>
  </diagram>
</mxfile>
